<?xml version="1.0" encoding="utf-8" standalone="no"?>
<!DOCTYPE svg PUBLIC "-//W3C//DTD SVG 1.1//EN"
  "http://www.w3.org/Graphics/SVG/1.1/DTD/svg11.dtd">
<!-- Created with matplotlib (http://matplotlib.org/) -->
<svg height="864pt" version="1.1" viewBox="0 0 864 864" width="864pt" xmlns="http://www.w3.org/2000/svg" xmlns:xlink="http://www.w3.org/1999/xlink">
 <defs>
  <style type="text/css">
*{stroke-linecap:butt;stroke-linejoin:round;}
  </style>
 </defs>
 <g id="figure_1">
  <g id="patch_1">
   <path d="M 0 864 
L 864 864 
L 864 0 
L 0 0 
z
" style="fill:#ffffff;"/>
  </g>
  <g id="axes_1">
   <g id="patch_2">
    <path d="M 710.64 429.84 
C 710.64 390.216541 701.375327 351.108731 683.551037 315.492733 
C 665.726747 279.876736 639.806761 248.679544 607.763629 224.275311 
C 575.720496 199.871079 538.388218 182.894986 498.607839 174.63894 
C 458.827459 166.382893 417.634359 167.061775 378.163396 176.623924 
C 338.692433 186.186072 301.970935 204.382608 270.793464 229.828747 
C 239.615993 255.274886 214.79402 287.308331 198.216533 323.491287 
C 181.639046 359.674243 173.737516 399.064961 175.113261 438.665747 
C 176.489006 478.266532 187.106219 517.04668 206.156913 552.054959 
L 442.8 429.84 
L 710.64 429.84 
z
" style="fill:#481b6d;"/>
   </g>
   <g id="patch_3">
    <path d="M 206.156913 552.054959 
C 221.721636 580.657284 242.615284 606.189525 267.768596 627.345035 
C 292.921909 648.500544 321.898356 664.912173 353.215028 675.740034 
L 442.8 429.84 
L 206.156913 552.054959 
z
" style="fill:#21918c;"/>
   </g>
   <g id="patch_4">
    <path d="M 353.215028 675.740034 
C 379.191618 684.721541 406.436416 689.742965 433.985613 690.626668 
C 461.534809 691.51037 489.059667 688.245807 515.58647 680.948465 
L 442.8 429.84 
L 353.215028 675.740034 
z
" style="fill:#4ac16d;"/>
   </g>
   <g id="patch_5">
    <path d="M 515.58647 680.948465 
C 535.358601 675.509287 554.422821 667.871832 572.40272 658.186896 
C 590.382619 648.50196 607.15908 636.833706 622.400865 623.412515 
L 442.8 429.84 
L 515.58647 680.948465 
z
" style="fill:#3f4889;"/>
   </g>
   <g id="patch_6">
    <path d="M 622.400865 623.412515 
C 632.005882 614.954794 640.968766 605.829717 649.218994 596.109083 
C 657.469222 586.388448 664.985099 576.097818 671.70749 565.318161 
L 442.8 429.84 
L 622.400865 623.412515 
z
" style="fill:#fde725;"/>
   </g>
   <g id="patch_7">
    <path d="M 671.70749 565.318161 
C 675.572419 559.120572 679.170461 552.768714 682.492244 546.279132 
C 685.814026 539.78955 688.856663 533.167883 691.612228 526.431381 
L 442.8 429.84 
L 671.70749 565.318161 
z
" style="fill:#2e6e8e;"/>
   </g>
   <g id="patch_8">
    <path d="M 691.612228 526.431381 
C 693.755322 521.192179 695.723489 515.886663 697.513625 510.523195 
C 699.303761 505.159728 700.914926 499.741128 702.34458 494.275936 
L 442.8 429.84 
L 691.612228 526.431381 
z
" style="fill:#1fa187;"/>
   </g>
   <g id="patch_9">
    <path d="M 702.34458 494.275936 
C 703.559034 489.6334 704.642007 484.95916 705.592269 480.258532 
C 706.54253 475.557904 707.359718 470.832671 708.042905 466.088208 
L 442.8 429.84 
L 702.34458 494.275936 
z
" style="fill:#277f8e;"/>
   </g>
   <g id="patch_10">
    <path d="M 708.042905 466.088208 
C 708.548881 462.574401 708.981233 459.050906 709.33969 455.51992 
C 709.698147 451.988935 709.982635 448.451193 710.192977 444.908904 
L 442.8 429.84 
L 708.042905 466.088208 
z
" style="fill:#2db27d;"/>
   </g>
   <g id="patch_11">
    <path d="M 710.192977 444.908904 
C 710.341946 442.400172 710.453705 439.889476 710.528221 437.377599 
C 710.602736 434.865723 710.64 432.352928 710.64 429.840003 
L 442.8 429.84 
L 710.192977 444.908904 
z
" style="fill:#a0da39;"/>
   </g>
   <g id="patch_12">
    <path clip-path="url(#pe2d35728ae)" d="M 442.8 612.4896 
C 492.522399 612.4896 540.214991 593.244486 575.374036 558.992771 
C 610.533082 524.741056 630.288 478.27924 630.288 429.84 
C 630.288 381.40076 610.533082 334.938944 575.374036 300.687229 
C 540.214991 266.435514 492.522399 247.1904 442.8 247.1904 
C 393.077601 247.1904 345.385009 266.435514 310.225964 300.687229 
C 275.066918 334.938944 255.312 381.40076 255.312 429.84 
C 255.312 478.27924 275.066918 524.741056 310.225964 558.992771 
C 345.385009 593.244486 393.077601 612.4896 442.8 612.4896 
z
" style="fill:#f0f0f0;stroke:#f0f0f0;stroke-linejoin:miter;"/>
   </g>
   <g id="matplotlib.axis_1"/>
   <g id="matplotlib.axis_2"/>
   <g id="text_1">
    <!-- z -->
    <defs>
     <path d="M 6.296875 42.796875 
L 6.296875 50.40625 
L 40.09375 50.40625 
L 40.09375 46.796875 
L 16.203125 7.59375 
L 41 7.59375 
L 41 0 
L 5 0 
L 5 3.59375 
L 28.796875 42.796875 
z
" id="Apercu-7a"/>
    </defs>
    <g transform="translate(363.49286 155.837472)scale(0.18 -0.18)">
     <use xlink:href="#Apercu-7a"/>
    </g>
   </g>
   <g id="text_2">
    <!-- csv -->
    <defs>
     <path d="M 42.09375 16.09375 
L 49.40625 13.09375 
Q 43.296875 -0.796875 28.296875 -0.796875 
Q 17.296875 -0.796875 11.34375 6.75 
Q 5.40625 14.296875 5.40625 25.1875 
Q 5.40625 36.09375 11.34375 43.640625 
Q 17.296875 51.203125 28.296875 51.203125 
Q 43.296875 51.203125 49.40625 37.296875 
L 42.09375 34.296875 
Q 38.09375 43.59375 28.296875 43.59375 
Q 21.296875 43.59375 17.640625 38.4375 
Q 14 33.296875 14 25.1875 
Q 14 17.09375 17.640625 11.9375 
Q 21.296875 6.796875 28.296875 6.796875 
Q 38.09375 6.796875 42.09375 16.09375 
z
" id="Apercu-63"/>
     <path d="M 23.59375 51.203125 
Q 32.796875 51.203125 38.203125 43.5 
L 32.5 38.59375 
Q 27.90625 43.59375 23.296875 43.59375 
Q 20.703125 43.59375 18.953125 41.890625 
Q 17.203125 40.203125 17.203125 37.203125 
Q 17.203125 34.703125 19.59375 32.890625 
Q 22 31.09375 25.453125 29.75 
Q 28.90625 28.40625 32.34375 26.796875 
Q 35.796875 25.203125 38.1875 22.25 
Q 40.59375 19.296875 40.59375 15.203125 
Q 40.59375 7.703125 36.09375 3.453125 
Q 31.59375 -0.796875 23.90625 -0.796875 
Q 16.796875 -0.796875 12.046875 3.09375 
Q 7.296875 7 5.09375 12.796875 
L 12.203125 16.703125 
Q 16.203125 6.796875 23.90625 6.796875 
Q 32 6.796875 32 14.703125 
Q 32 17.203125 29.59375 19 
Q 27.203125 20.796875 23.796875 22.046875 
Q 20.40625 23.296875 17 24.890625 
Q 13.59375 26.5 11.1875 29.640625 
Q 8.796875 32.796875 8.796875 37.296875 
Q 8.796875 43.296875 12.84375 47.25 
Q 16.90625 51.203125 23.59375 51.203125 
z
" id="Apercu-73"/>
     <path d="M 35.09375 50.40625 
L 43.703125 50.40625 
L 27.09375 0 
L 18.5 0 
L 1.90625 50.40625 
L 10.5 50.40625 
L 22.796875 10.703125 
z
" id="Apercu-76"/>
    </defs>
    <g transform="translate(224.078268 651.630694)scale(0.18 -0.18)">
     <use xlink:href="#Apercu-63"/>
     <use x="53.799988" xlink:href="#Apercu-73"/>
     <use x="99.899979" xlink:href="#Apercu-76"/>
    </g>
   </g>
   <g id="text_3">
    <!-- txt -->
    <defs>
     <path d="M 2.5 42.796875 
L 2.5 50.40625 
L 11.203125 50.40625 
L 11.203125 65.5 
L 19.59375 70.796875 
L 19.59375 50.40625 
L 32.796875 50.40625 
L 32.796875 42.796875 
L 19.59375 42.796875 
L 19.59375 15.09375 
Q 19.59375 11.09375 21.34375 8.9375 
Q 23.09375 6.796875 26.296875 6.796875 
Q 29.59375 6.796875 32 8.40625 
L 34 1.09375 
Q 30.703125 -0.796875 25.796875 -0.796875 
Q 19.09375 -0.796875 15.140625 3.390625 
Q 11.203125 7.59375 11.203125 15.796875 
L 11.203125 42.796875 
z
" id="Apercu-74"/>
     <path d="M 3.59375 50.40625 
L 13.09375 50.40625 
L 22.90625 34.40625 
L 32.703125 50.40625 
L 42.203125 50.40625 
L 27.59375 26.59375 
L 44 0 
L 34.5 0 
L 22.90625 18.90625 
L 11.296875 0 
L 1.796875 0 
L 18.203125 26.59375 
z
" id="Apercu-78"/>
    </defs>
    <g transform="translate(411.251049 721.240491)scale(0.18 -0.18)">
     <use xlink:href="#Apercu-74"/>
     <use x="37.799988" xlink:href="#Apercu-78"/>
     <use x="83.615601" xlink:href="#Apercu-74"/>
    </g>
   </g>
   <g id="text_4">
    <!-- gif -->
    <defs>
     <path d="M 9 34.203125 
Q 9 41.796875 14 46.4375 
Q 19 51.09375 26.59375 51.09375 
Q 31.5 51.09375 35.703125 48.90625 
L 44.703125 54 
L 48.5 47.09375 
L 41.703125 43.296875 
Q 44.203125 39.40625 44.203125 34.203125 
Q 44.203125 26.5 39.203125 21.953125 
Q 34.203125 17.40625 26.59375 17.40625 
Q 21.59375 17.40625 17.90625 19.203125 
Q 14.59375 17.59375 14.59375 14.296875 
Q 14.59375 10.09375 20.296875 10.09375 
L 32.203125 10.09375 
Q 39.40625 10.09375 43.703125 6.5 
Q 48 2.90625 48 -3.796875 
Q 48 -12.59375 42 -16.890625 
Q 36 -21.203125 26.703125 -21.203125 
Q 17 -21.203125 11.140625 -16.796875 
Q 5.296875 -12.40625 5.296875 -4.59375 
Q 5.296875 1.90625 10 5.90625 
Q 6.59375 8.796875 6.59375 13.90625 
Q 6.59375 20.09375 12.703125 23.203125 
Q 9 27.703125 9 34.203125 
z
M 30.90625 2.90625 
L 20.703125 2.90625 
Q 19.203125 2.90625 17 3.09375 
Q 13.703125 0.5 13.703125 -4.296875 
Q 13.703125 -8.59375 17.046875 -11.1875 
Q 20.40625 -13.796875 26.703125 -13.796875 
Q 33 -13.796875 36.203125 -11.25 
Q 39.40625 -8.703125 39.40625 -4.59375 
Q 39.40625 2.90625 30.90625 2.90625 
z
M 19.90625 41.296875 
Q 17.203125 38.703125 17.203125 34.203125 
Q 17.203125 29.703125 19.890625 27.140625 
Q 22.59375 24.59375 26.59375 24.59375 
Q 30.59375 24.59375 33.296875 27.140625 
Q 36 29.703125 36 34.203125 
Q 36 38.703125 33.296875 41.296875 
Q 30.59375 43.90625 26.59375 43.90625 
Q 22.59375 43.90625 19.90625 41.296875 
z
" id="Apercu-67"/>
     <path d="M 9.296875 50.40625 
L 17.703125 50.40625 
L 17.703125 0 
L 9.296875 0 
z
M 7.203125 64.40625 
Q 7.203125 67.09375 9 68.9375 
Q 10.796875 70.796875 13.5 70.796875 
Q 16.203125 70.796875 18 68.9375 
Q 19.796875 67.09375 19.796875 64.40625 
Q 19.796875 61.796875 18 60 
Q 16.203125 58.203125 13.5 58.203125 
Q 10.796875 58.203125 9 60 
Q 7.203125 61.796875 7.203125 64.40625 
z
" id="Apercu-69"/>
     <path d="M 4.703125 42.796875 
L 4.703125 50.40625 
L 11.90625 50.40625 
L 11.90625 53.703125 
Q 11.90625 62.203125 16.15625 66.5 
Q 20.40625 70.796875 28.203125 70.796875 
Q 32.59375 70.796875 35.40625 69.203125 
L 33.703125 61.796875 
Q 30.90625 63.203125 28.09375 63.203125 
Q 24 63.203125 22.140625 60.890625 
Q 20.296875 58.59375 20.296875 53.703125 
L 20.296875 50.40625 
L 31.90625 50.40625 
L 31.90625 42.796875 
L 20.296875 42.796875 
L 20.296875 0 
L 11.90625 0 
L 11.90625 42.796875 
z
" id="Apercu-66"/>
    </defs>
    <g transform="translate(585.362992 685.485023)scale(0.18 -0.18)">
     <use xlink:href="#Apercu-67"/>
     <use x="50.699997" xlink:href="#Apercu-69"/>
     <use x="77.668732" xlink:href="#Apercu-66"/>
    </g>
   </g>
   <g id="text_5">
    <!-- pdf -->
    <defs>
     <path d="M 32.296875 -0.796875 
Q 27.796875 -0.796875 23.390625 1.390625 
Q 19 3.59375 17.59375 6 
L 17.59375 -20.40625 
L 9.203125 -20.40625 
L 9.203125 50.40625 
L 17.59375 50.40625 
L 17.59375 44.203125 
Q 19.5 47.09375 23.640625 49.140625 
Q 27.796875 51.203125 32.296875 51.203125 
Q 43.09375 51.203125 48.890625 44.046875 
Q 54.703125 36.90625 54.703125 25.203125 
Q 54.703125 13.5 48.890625 6.34375 
Q 43.09375 -0.796875 32.296875 -0.796875 
z
M 31.5 43.59375 
Q 24.703125 43.59375 20.796875 38.5 
Q 16.90625 33.40625 16.90625 25.203125 
Q 16.90625 17 20.796875 11.890625 
Q 24.703125 6.796875 31.5 6.796875 
Q 38.09375 6.796875 42.09375 11.890625 
Q 46.09375 17 46.09375 25.203125 
Q 46.09375 33.40625 42.09375 38.5 
Q 38.09375 43.59375 31.5 43.59375 
z
" id="Apercu-70"/>
     <path d="M 27.796875 51.203125 
Q 32.296875 51.203125 36.6875 49 
Q 41.09375 46.796875 42.5 44.40625 
L 42.5 70.796875 
L 50.90625 70.796875 
L 50.90625 0 
L 42.5 0 
L 42.5 6.203125 
Q 40.59375 3.296875 36.4375 1.25 
Q 32.296875 -0.796875 27.796875 -0.796875 
Q 17 -0.796875 11.203125 6.34375 
Q 5.40625 13.5 5.40625 25.203125 
Q 5.40625 36.90625 11.203125 44.046875 
Q 17 51.203125 27.796875 51.203125 
z
M 28.59375 6.796875 
Q 35.40625 6.796875 39.296875 11.890625 
Q 43.203125 17 43.203125 25.203125 
Q 43.203125 33.40625 39.296875 38.5 
Q 35.40625 43.59375 28.59375 43.59375 
Q 22 43.59375 18 38.5 
Q 14 33.40625 14 25.203125 
Q 14 17 18 11.890625 
Q 22 6.796875 28.59375 6.796875 
z
" id="Apercu-64"/>
    </defs>
    <g transform="translate(669.860893 617.271147)scale(0.18 -0.18)">
     <use xlink:href="#Apercu-70"/>
     <use x="60.099991" xlink:href="#Apercu-64"/>
     <use x="120.199982" xlink:href="#Apercu-66"/>
    </g>
   </g>
   <g id="text_6">
    <!-- xml -->
    <defs>
     <path d="M 77.40625 35.5 
L 77.40625 0 
L 69 0 
L 69 33.703125 
Q 69 43.59375 60.90625 43.59375 
Q 55.203125 43.59375 51.34375 37.4375 
Q 47.5 31.296875 47.5 20.703125 
L 47.5 0 
L 39.09375 0 
L 39.09375 33.703125 
Q 39.09375 43.59375 31 43.59375 
Q 25.296875 43.59375 21.4375 37.4375 
Q 17.59375 31.296875 17.59375 20.703125 
L 17.59375 0 
L 9.203125 0 
L 9.203125 50.40625 
L 17.59375 50.40625 
L 17.59375 41.09375 
Q 22.703125 51.203125 33.296875 51.203125 
Q 38.5 51.203125 42.046875 48.453125 
Q 45.59375 45.703125 46.796875 40.703125 
Q 52.40625 51.203125 63.203125 51.203125 
Q 70 51.203125 73.703125 47.046875 
Q 77.40625 42.90625 77.40625 35.5 
z
" id="Apercu-6d"/>
     <path d="M 9 70.796875 
L 17.40625 70.796875 
L 17.40625 0 
L 9 0 
z
" id="Apercu-6c"/>
    </defs>
    <g transform="translate(706.461468 562.458202)scale(0.18 -0.18)">
     <use xlink:href="#Apercu-78"/>
     <use x="45.799988" xlink:href="#Apercu-6d"/>
     <use x="131.999969" xlink:href="#Apercu-6c"/>
    </g>
   </g>
   <g id="text_7">
    <!-- xls -->
    <g transform="translate(722.984987 523.126671)scale(0.18 -0.18)">
     <use xlink:href="#Apercu-78"/>
     <use x="45.799988" xlink:href="#Apercu-6c"/>
     <use x="71.599976" xlink:href="#Apercu-73"/>
    </g>
   </g>
   <g id="text_8">
    <!-- dat -->
    <defs>
     <path d="M 14.203125 14.5 
Q 14.203125 10.90625 16.34375 8.84375 
Q 18.5 6.796875 22.5 6.796875 
Q 28.203125 6.796875 32.390625 10.546875 
Q 36.59375 14.296875 36.59375 22.203125 
L 36.59375 23.40625 
L 27.59375 23.40625 
Q 21.203125 23.40625 17.703125 21.09375 
Q 14.203125 18.796875 14.203125 14.5 
z
M 45 32.203125 
L 45 0 
L 38.40625 0 
L 37 7.09375 
Q 31.5 -0.796875 21.203125 -0.796875 
Q 14.40625 -0.796875 10 3 
Q 5.59375 6.796875 5.59375 14.5 
Q 5.59375 22.5 11.6875 26.75 
Q 17.796875 31 28.40625 31 
L 36.59375 31 
L 36.59375 33.203125 
Q 36.59375 43.59375 25.59375 43.59375 
Q 21.59375 43.59375 18.75 41.5 
Q 15.90625 39.40625 15.09375 35.703125 
L 7.703125 37.40625 
Q 8.703125 43.796875 13.59375 47.5 
Q 18.5 51.203125 25.59375 51.203125 
Q 34.40625 51.203125 39.703125 46.5 
Q 45 41.796875 45 32.203125 
z
" id="Apercu-61"/>
    </defs>
    <g transform="translate(731.871495 489.835541)scale(0.18 -0.18)">
     <use xlink:href="#Apercu-64"/>
     <use x="60.084366" xlink:href="#Apercu-61"/>
     <use x="111.884354" xlink:href="#Apercu-74"/>
    </g>
   </g>
   <g id="text_9">
    <!-- readme -->
    <defs>
     <path d="M 39.296875 49.703125 
L 37.59375 42.203125 
Q 34.796875 43.59375 31.703125 43.59375 
Q 26 43.59375 21.796875 37.140625 
Q 17.59375 30.703125 17.59375 19.09375 
L 17.59375 0 
L 9.203125 0 
L 9.203125 50.40625 
L 17.59375 50.40625 
L 17.59375 41.796875 
Q 19.796875 46 24 48.59375 
Q 28.203125 51.203125 32.40625 51.203125 
Q 36.5 51.203125 39.296875 49.703125 
z
" id="Apercu-72"/>
     <path d="M 51 27.296875 
L 51 23.40625 
L 14 23.40625 
Q 14.40625 16 18.046875 11.390625 
Q 21.703125 6.796875 28.203125 6.796875 
Q 33.5 6.796875 36.75 9.140625 
Q 40 11.5 42.203125 16.40625 
L 49.59375 13.203125 
Q 46.09375 5.796875 41.046875 2.5 
Q 36 -0.796875 28.203125 -0.796875 
Q 17.296875 -0.796875 11.34375 6.75 
Q 5.40625 14.296875 5.40625 25.1875 
Q 5.40625 36.09375 11.34375 43.640625 
Q 17.296875 51.203125 28.203125 51.203125 
Q 38.90625 51.203125 44.953125 44.25 
Q 51 37.296875 51 27.296875 
z
M 28.203125 43.59375 
Q 22.59375 43.59375 19.140625 40.1875 
Q 15.703125 36.796875 14.5 31 
L 42.203125 31 
Q 41 36.703125 37.5 40.140625 
Q 34 43.59375 28.203125 43.59375 
z
" id="Apercu-65"/>
    </defs>
    <g transform="translate(735.993659 462.623069)scale(0.18 -0.18)">
     <use xlink:href="#Apercu-72"/>
     <use x="41.299988" xlink:href="#Apercu-65"/>
     <use x="97.299973" xlink:href="#Apercu-61"/>
     <use x="149.09996" xlink:href="#Apercu-64"/>
     <use x="209.184326" xlink:href="#Apercu-6d"/>
     <use x="295.368683" xlink:href="#Apercu-65"/>
    </g>
   </g>
   <g id="text_10">
    <!-- jpg -->
    <defs>
     <path d="M 2.5 -21.203125 
L 0.296875 -13.203125 
Q 5.09375 -11.90625 7.296875 -9.5 
Q 9.5 -7.09375 9.5 -1.796875 
L 9.5 50.40625 
L 17.90625 50.40625 
L 17.90625 -2.59375 
Q 17.90625 -10.296875 13.90625 -15.046875 
Q 9.90625 -19.796875 2.5 -21.203125 
z
M 7.203125 64.40625 
Q 7.203125 67.09375 9 68.9375 
Q 10.796875 70.796875 13.5 70.796875 
Q 16.203125 70.796875 18 68.9375 
Q 19.796875 67.09375 19.796875 64.40625 
Q 19.796875 61.796875 18 60 
Q 16.203125 58.203125 13.5 58.203125 
Q 10.796875 58.203125 9 60 
Q 7.203125 61.796875 7.203125 64.40625 
z
" id="Apercu-6a"/>
    </defs>
    <g transform="translate(737.301043 442.594796)scale(0.18 -0.18)">
     <use xlink:href="#Apercu-6a"/>
     <use x="26.968735" xlink:href="#Apercu-70"/>
     <use x="87.068726" xlink:href="#Apercu-67"/>
    </g>
   </g>
  </g>
 </g>
 <defs>
  <clipPath id="pe2d35728ae">
   <rect height="652.32" width="669.6" x="108" y="103.68"/>
  </clipPath>
 </defs>
</svg>
