<?xml version="1.0" encoding="utf-8" standalone="no"?>
<!DOCTYPE svg PUBLIC "-//W3C//DTD SVG 1.1//EN"
  "http://www.w3.org/Graphics/SVG/1.1/DTD/svg11.dtd">
<!-- Created with matplotlib (http://matplotlib.org/) -->
<svg height="864pt" version="1.1" viewBox="0 0 864 864" width="864pt" xmlns="http://www.w3.org/2000/svg" xmlns:xlink="http://www.w3.org/1999/xlink">
 <defs>
  <style type="text/css">
*{stroke-linecap:butt;stroke-linejoin:round;}
  </style>
 </defs>
 <g id="figure_1">
  <g id="patch_1">
   <path d="M 0 864 
L 864 864 
L 864 0 
L 0 0 
z
" style="fill:#ffffff;"/>
  </g>
  <g id="axes_1">
   <g id="patch_2">
    <path d="M 710.64 429.84 
C 710.64 390.216541 701.375327 351.108731 683.551037 315.492733 
C 665.726747 279.876736 639.806761 248.679544 607.763629 224.275311 
C 575.720496 199.871079 538.388218 182.894986 498.607839 174.63894 
C 458.827459 166.382893 417.634359 167.061775 378.163396 176.623924 
C 338.692433 186.186072 301.970935 204.382608 270.793464 229.828747 
C 239.615993 255.274886 214.79402 287.308331 198.216533 323.491287 
C 181.639046 359.674243 173.737516 399.064961 175.113261 438.665747 
C 176.489006 478.266532 187.106219 517.04668 206.156913 552.054959 
L 442.8 429.84 
L 710.64 429.84 
z
" style="fill:#a0da39;"/>
   </g>
   <g id="patch_3">
    <path d="M 206.156913 552.054959 
C 221.721636 580.657284 242.615284 606.189525 267.768596 627.345035 
C 292.921909 648.500544 321.898356 664.912173 353.215028 675.740034 
L 442.8 429.84 
L 206.156913 552.054959 
z
" style="fill:#3f4889;"/>
   </g>
   <g id="patch_4">
    <path d="M 353.215028 675.740034 
C 379.191618 684.721541 406.436416 689.742965 433.985613 690.626668 
C 461.534809 691.51037 489.059667 688.245807 515.58647 680.948465 
L 442.8 429.84 
L 353.215028 675.740034 
z
" style="fill:#21918c;"/>
   </g>
   <g id="patch_5">
    <path d="M 515.58647 680.948465 
C 535.358601 675.509287 554.422821 667.871832 572.40272 658.186896 
C 590.382619 648.50196 607.15908 636.833706 622.400865 623.412515 
L 442.8 429.84 
L 515.58647 680.948465 
z
" style="fill:#70cf57;"/>
   </g>
   <g id="patch_6">
    <path d="M 622.400865 623.412515 
C 632.005882 614.954794 640.968766 605.829717 649.218994 596.109083 
C 657.469222 586.388448 664.985099 576.097818 671.70749 565.318161 
L 442.8 429.84 
L 622.400865 623.412515 
z
" style="fill:#481b6d;"/>
   </g>
   <g id="patch_7">
    <path d="M 671.70749 565.318161 
C 675.572419 559.120572 679.170461 552.768714 682.492244 546.279132 
C 685.814026 539.78955 688.856663 533.167883 691.612228 526.431381 
L 442.8 429.84 
L 671.70749 565.318161 
z
" style="fill:#1fa187;"/>
   </g>
   <g id="patch_8">
    <path d="M 691.612228 526.431381 
C 693.755322 521.192179 695.723489 515.886663 697.513625 510.523195 
C 699.303761 505.159728 700.914926 499.741128 702.34458 494.275936 
L 442.8 429.84 
L 691.612228 526.431381 
z
" style="fill:#440154;"/>
   </g>
   <g id="patch_9">
    <path d="M 702.34458 494.275936 
C 703.559034 489.6334 704.642007 484.95916 705.592269 480.258532 
C 706.54253 475.557904 707.359718 470.832671 708.042905 466.088208 
L 442.8 429.84 
L 702.34458 494.275936 
z
" style="fill:#277f8e;"/>
   </g>
   <g id="patch_10">
    <path d="M 708.042905 466.088208 
C 708.548881 462.574401 708.981233 459.050906 709.33969 455.51992 
C 709.698147 451.988935 709.982635 448.451193 710.192977 444.908904 
L 442.8 429.84 
L 708.042905 466.088208 
z
" style="fill:#d0e11c;"/>
   </g>
   <g id="patch_11">
    <path d="M 710.192977 444.908904 
C 710.341946 442.400172 710.453705 439.889476 710.528221 437.377599 
C 710.602736 434.865723 710.64 432.352928 710.64 429.840003 
L 442.8 429.84 
L 710.192977 444.908904 
z
" style="fill:#365c8d;"/>
   </g>
   <g id="patch_12">
    <path clip-path="url(#p22a63958c1)" d="M 442.8 612.4896 
C 492.522399 612.4896 540.214991 593.244486 575.374036 558.992771 
C 610.533082 524.741056 630.288 478.27924 630.288 429.84 
C 630.288 381.40076 610.533082 334.938944 575.374036 300.687229 
C 540.214991 266.435514 492.522399 247.1904 442.8 247.1904 
C 393.077601 247.1904 345.385009 266.435514 310.225964 300.687229 
C 275.066918 334.938944 255.312 381.40076 255.312 429.84 
C 255.312 478.27924 275.066918 524.741056 310.225964 558.992771 
C 345.385009 593.244486 393.077601 612.4896 442.8 612.4896 
z
" style="fill:#f0f0f0;stroke:#f0f0f0;stroke-linejoin:miter;"/>
   </g>
   <g id="matplotlib.axis_1"/>
   <g id="matplotlib.axis_2"/>
   <g id="text_1">
    <!-- z -->
    <defs>
     <path d="M 47.703125 41.296875 
L 20.5 7.203125 
L 47.09375 7.203125 
Q 47.796875 7.203125 48.34375 6.703125 
Q 48.90625 6.203125 48.90625 5.40625 
L 48.90625 1.796875 
Q 48.90625 1 48.34375 0.5 
Q 47.796875 0 47.09375 0 
L 12.796875 0 
Q 12 0 11.5 0.5 
Q 11 1 11 1.796875 
L 11 6.296875 
Q 11 7.5 12 8.796875 
L 39.09375 42.796875 
L 14.203125 42.796875 
Q 13.40625 42.796875 12.90625 43.296875 
Q 12.40625 43.796875 12.40625 44.59375 
L 12.40625 48.203125 
Q 12.40625 49 12.90625 49.5 
Q 13.40625 50 14.203125 50 
L 46.703125 50 
Q 47.40625 50 47.953125 49.5 
Q 48.5 49 48.5 48.203125 
L 48.5 43.703125 
Q 48.5 42.40625 47.703125 41.296875 
z
" id="DecimaMonoPro-7a"/>
    </defs>
    <g transform="translate(360.899735 155.990754)scale(0.18 -0.18)">
     <use xlink:href="#DecimaMonoPro-7a"/>
    </g>
   </g>
   <g id="text_2">
    <!-- csv -->
    <defs>
     <path d="M 30.703125 43.703125 
Q 25.5 43.703125 22.25 40.5 
Q 19 37.296875 19 32.90625 
L 19 17 
Q 19 12.40625 22.25 9.25 
Q 25.5 6.09375 30.796875 6.09375 
Q 35.59375 6.09375 38.4375 8.890625 
Q 41.296875 11.703125 41.703125 14.90625 
Q 41.90625 16.59375 43.5 16.59375 
L 48.09375 16.59375 
Q 48.796875 16.59375 49.34375 16.09375 
Q 49.90625 15.59375 49.90625 14.796875 
Q 49.90625 9.59375 44.75 4.296875 
Q 39.59375 -1 30.6875 -1 
Q 21.796875 -1 16.34375 4.5 
Q 10.90625 10 10.90625 17.5 
L 10.90625 32.59375 
Q 10.90625 40.203125 16.40625 45.59375 
Q 21.90625 51 30.703125 51 
Q 35.703125 51 39.546875 49.296875 
Q 43.40625 47.59375 45.453125 44.9375 
Q 47.5 42.296875 48.5 39.75 
Q 49.5 37.203125 49.5 35 
Q 49.5 34.203125 48.953125 33.703125 
Q 48.40625 33.203125 47.703125 33.203125 
L 43.09375 33.203125 
Q 41.5 33.203125 41.296875 34.90625 
Q 41.09375 36.203125 40.59375 37.453125 
Q 40.09375 38.703125 39 40.25 
Q 37.90625 41.796875 35.75 42.75 
Q 33.59375 43.703125 30.703125 43.703125 
z
" id="DecimaMonoPro-63"/>
     <path d="M 30.09375 -1 
Q 25.296875 -1 21.546875 0.59375 
Q 17.796875 2.203125 15.84375 4.59375 
Q 13.90625 7 12.953125 9.390625 
Q 12 11.796875 12 14 
Q 12 14.796875 12.5 15.296875 
Q 13 15.796875 13.796875 15.796875 
L 18.296875 15.796875 
Q 19.90625 15.796875 20.09375 14.09375 
Q 20.40625 11.203125 22.796875 8.703125 
Q 25.203125 6.203125 30.09375 6.203125 
Q 34.296875 6.203125 36.890625 8.296875 
Q 39.5 10.40625 39.5 13.59375 
Q 39.5 16.5 36.84375 18.5 
Q 34.203125 20.5 30.390625 21.84375 
Q 26.59375 23.203125 22.84375 24.796875 
Q 19.09375 26.40625 16.4375 29.5 
Q 13.796875 32.59375 13.796875 37.09375 
Q 13.796875 43.296875 18.4375 47.140625 
Q 23.09375 51 30.703125 51 
Q 38.90625 51 43.25 46.5 
Q 47.59375 42 47.59375 37.5 
Q 47.59375 36.796875 47.09375 36.25 
Q 46.59375 35.703125 45.796875 35.703125 
L 41.203125 35.703125 
Q 39.703125 35.703125 39.40625 37.40625 
Q 38.90625 40 36.75 41.890625 
Q 34.59375 43.796875 30.703125 43.796875 
Q 26.90625 43.796875 24.546875 42.09375 
Q 22.203125 40.40625 22.203125 37.703125 
Q 22.203125 35 24.84375 33.09375 
Q 27.5 31.203125 31.25 29.890625 
Q 35 28.59375 38.703125 26.9375 
Q 42.40625 25.296875 45.046875 21.84375 
Q 47.703125 18.40625 47.703125 13.40625 
Q 47.703125 7.40625 42.59375 3.203125 
Q 37.5 -1 30.09375 -1 
z
" id="DecimaMonoPro-73"/>
     <path d="M 47.59375 30.296875 
L 37.203125 1.703125 
Q 36.59375 0 34.796875 0 
L 25.09375 0 
Q 23.296875 0 22.703125 1.703125 
L 12.296875 30.296875 
Q 12 31 12 32 
L 12 48.203125 
Q 12 50 14.296875 50 
L 17.703125 50 
Q 20 50 20 48.203125 
L 20 31.796875 
Q 20 31 20.296875 30.296875 
L 28.90625 6.296875 
L 31 6.296875 
L 39.59375 30.296875 
Q 39.90625 31 39.90625 31.796875 
L 39.90625 48.203125 
Q 39.90625 50 42.203125 50 
L 45.59375 50 
Q 47.90625 50 47.90625 48.203125 
L 47.90625 32 
Q 47.90625 31 47.59375 30.296875 
z
" id="DecimaMonoPro-76"/>
    </defs>
    <g transform="translate(217.865456 651.783976)scale(0.18 -0.18)">
     <use xlink:href="#DecimaMonoPro-63"/>
     <use x="59.999985" xlink:href="#DecimaMonoPro-73"/>
     <use x="119.999969" xlink:href="#DecimaMonoPro-76"/>
    </g>
   </g>
   <g id="text_3">
    <!-- txt -->
    <defs>
     <path d="M 24.796875 61.296875 
L 24.796875 50 
L 48.40625 50 
Q 49.203125 50 49.703125 49.5 
Q 50.203125 49 50.203125 48.203125 
L 50.203125 44.59375 
Q 50.203125 43.796875 49.703125 43.296875 
Q 49.203125 42.796875 48.40625 42.796875 
L 24.796875 42.796875 
L 24.796875 15.90625 
Q 24.796875 11.796875 27.390625 9 
Q 30 6.203125 34.796875 6.203125 
Q 39 6.203125 41.390625 8.640625 
Q 43.796875 11.09375 44.203125 14 
Q 44.40625 15.703125 45.90625 15.703125 
L 50.40625 15.703125 
Q 51.203125 15.703125 51.703125 15.140625 
Q 52.203125 14.59375 52.203125 13.90625 
Q 52.203125 11.59375 51.296875 9.25 
Q 50.40625 6.90625 48.546875 4.5 
Q 46.703125 2.09375 43.046875 0.546875 
Q 39.40625 -1 34.59375 -1 
Q 25.703125 -1 21.203125 3.59375 
Q 16.703125 8.203125 16.703125 15.09375 
L 16.703125 42.796875 
L 9.296875 42.796875 
Q 8.59375 42.796875 8.046875 43.296875 
Q 7.5 43.796875 7.5 44.59375 
L 7.5 48.203125 
Q 7.5 49 8.046875 49.5 
Q 8.59375 50 9.296875 50 
L 16.703125 50 
L 16.703125 61.296875 
Q 16.703125 63.09375 19 63.09375 
L 22.59375 63.09375 
Q 24.796875 63.09375 24.796875 61.296875 
z
" id="DecimaMonoPro-74"/>
     <path d="M 34.703125 25.59375 
L 48.5 3.296875 
Q 49.5 1.5 49.5 1.09375 
Q 49.5 0 47.5 0 
L 43.203125 0 
Q 41.40625 0 40.296875 1.796875 
L 30 18.5 
L 19.703125 1.796875 
Q 18.59375 0 16.90625 0 
L 12.59375 0 
Q 10.59375 0 10.59375 1.09375 
Q 10.59375 1.703125 11.5 3.296875 
L 25.203125 25.59375 
L 12 46.703125 
Q 11.09375 48.296875 11.09375 48.90625 
Q 11.09375 50 13.09375 50 
L 17.40625 50 
Q 19.203125 50 20.296875 48.203125 
L 30 32.59375 
L 39.59375 48.203125 
Q 40.703125 50 42.5 50 
L 46.796875 50 
Q 48.796875 50 48.796875 48.90625 
Q 48.796875 48.296875 47.90625 46.703125 
z
" id="DecimaMonoPro-78"/>
    </defs>
    <g transform="translate(400.704174 721.393772)scale(0.18 -0.18)">
     <use xlink:href="#DecimaMonoPro-74"/>
     <use x="59.999985" xlink:href="#DecimaMonoPro-78"/>
     <use x="119.999969" xlink:href="#DecimaMonoPro-74"/>
    </g>
   </g>
   <g id="text_4">
    <!-- gif -->
    <defs>
     <path d="M 39.90625 -0.5 
L 19.203125 -0.5 
Q 16.703125 -0.5 14.953125 -2.140625 
Q 13.203125 -3.796875 13.203125 -6.09375 
Q 13.203125 -8.40625 14.953125 -10 
Q 16.703125 -11.59375 19.203125 -11.59375 
L 39.796875 -11.59375 
Q 42.296875 -11.59375 44.046875 -9.9375 
Q 45.796875 -8.296875 45.796875 -6 
Q 45.796875 -3.703125 44.09375 -2.09375 
Q 42.40625 -0.5 39.90625 -0.5 
z
M 36.796875 29.203125 
L 36.796875 35.90625 
Q 36.796875 39.40625 34.296875 41.703125 
Q 31.796875 44 28.296875 44 
Q 24.59375 44 22.046875 41.703125 
Q 19.5 39.40625 19.5 35.90625 
L 19.5 29.203125 
Q 19.5 25.796875 22.046875 23.4375 
Q 24.59375 21.09375 28.296875 21.09375 
Q 31.703125 21.09375 34.25 23.4375 
Q 36.796875 25.796875 36.796875 29.203125 
z
M 47.5 48.59375 
Q 44.40625 48.59375 43.5 47.296875 
L 41.40625 44.40625 
Q 44.5 41 44.5 35.90625 
L 44.5 29.296875 
Q 44.5 23.296875 39.546875 18.640625 
Q 34.59375 14 28.296875 14 
L 28.296875 6 
L 41 6 
Q 46.09375 6 49.640625 2.546875 
Q 53.203125 -0.90625 53.203125 -6.09375 
Q 53.203125 -11.296875 49.640625 -14.640625 
Q 46.09375 -18 40.90625 -18 
L 18 -18 
Q 12.796875 -18 9.296875 -14.640625 
Q 5.796875 -11.296875 5.796875 -6.09375 
Q 5.796875 -0.796875 9.296875 2.59375 
Q 12.796875 6 18 6 
L 20.59375 6 
L 20.59375 16 
Q 17.703125 17.09375 14.796875 20.546875 
Q 11.90625 24 11.90625 29.296875 
L 11.90625 35.90625 
Q 11.90625 42.09375 16.75 46.546875 
Q 21.59375 51 28.296875 51 
Q 32.703125 51 36.09375 49 
L 38.796875 52.40625 
Q 40.40625 54.40625 42.09375 55.09375 
Q 43.796875 55.796875 47.5 55.796875 
Q 48.203125 55.796875 48.75 55.296875 
Q 49.296875 54.796875 49.296875 54 
L 49.296875 50.40625 
Q 49.296875 49.59375 48.75 49.09375 
Q 48.203125 48.59375 47.5 48.59375 
z
" id="DecimaMonoPro-67"/>
     <path d="M 13 50 
L 34.40625 50 
Q 35.203125 50 35.703125 49.5 
Q 36.203125 49 36.203125 48.203125 
L 36.203125 7.203125 
L 49.703125 7.203125 
Q 50.40625 7.203125 50.953125 6.703125 
Q 51.5 6.203125 51.5 5.40625 
L 51.5 1.796875 
Q 51.5 1 50.953125 0.5 
Q 50.40625 0 49.703125 0 
L 12.5 0 
Q 11.796875 0 11.25 0.5 
Q 10.703125 1 10.703125 1.796875 
L 10.703125 5.40625 
Q 10.703125 6.203125 11.25 6.703125 
Q 11.796875 7.203125 12.5 7.203125 
L 28.203125 7.203125 
L 28.203125 42.796875 
L 13 42.796875 
Q 12.203125 42.796875 11.703125 43.296875 
Q 11.203125 43.796875 11.203125 44.59375 
L 11.203125 48.203125 
Q 11.203125 49 11.703125 49.5 
Q 12.203125 50 13 50 
z
M 36.40625 66.296875 
L 36.40625 62 
Q 36.40625 61 35.75 60.34375 
Q 35.09375 59.703125 34.09375 59.703125 
L 29.5 59.703125 
Q 28.5 59.703125 27.84375 60.34375 
Q 27.203125 61 27.203125 62 
L 27.203125 66.296875 
Q 27.203125 67.296875 27.84375 67.9375 
Q 28.5 68.59375 29.5 68.59375 
L 34.09375 68.59375 
Q 35.09375 68.59375 35.75 67.9375 
Q 36.40625 67.296875 36.40625 66.296875 
z
" id="DecimaMonoPro-69"/>
     <path d="M 22.703125 50 
L 22.703125 54.09375 
Q 22.703125 61.296875 27.59375 66.140625 
Q 32.5 71 40.296875 71 
Q 43.703125 71 46.453125 70.390625 
Q 49.203125 69.796875 50.296875 69.203125 
L 51.40625 68.59375 
Q 52.09375 68.203125 52.09375 67.203125 
Q 52.09375 66.59375 51.796875 66.09375 
L 49.5 63 
Q 49 62.203125 48.203125 62.203125 
Q 48 62.203125 46.5 62.703125 
Q 44.40625 63.703125 40.40625 63.703125 
Q 36.09375 63.703125 33.5 61.046875 
Q 30.90625 58.40625 30.90625 54.40625 
L 30.90625 50 
L 47.796875 50 
Q 48.59375 50 49.09375 49.5 
Q 49.59375 49 49.59375 48.203125 
L 49.59375 44.59375 
Q 49.59375 43.796875 49.09375 43.296875 
Q 48.59375 42.796875 47.796875 42.796875 
L 30.90625 42.796875 
L 30.90625 1.796875 
Q 30.90625 0 28.59375 0 
L 25 0 
Q 22.703125 0 22.703125 1.796875 
L 22.703125 42.796875 
L 12.40625 42.796875 
Q 11.59375 42.796875 11.09375 43.296875 
Q 10.59375 43.796875 10.59375 44.59375 
L 10.59375 48.203125 
Q 10.59375 49 11.09375 49.5 
Q 11.59375 50 12.40625 50 
z
" id="DecimaMonoPro-66"/>
    </defs>
    <g transform="translate(585.362992 685.791586)scale(0.18 -0.18)">
     <use xlink:href="#DecimaMonoPro-67"/>
     <use x="59.999985" xlink:href="#DecimaMonoPro-69"/>
     <use x="119.999969" xlink:href="#DecimaMonoPro-66"/>
    </g>
   </g>
   <g id="text_5">
    <!-- pdf -->
    <defs>
     <path d="M 42.09375 17.09375 
L 42.09375 33.09375 
Q 42.09375 37.703125 38.84375 40.796875 
Q 35.59375 43.90625 30.5 43.90625 
Q 25.40625 43.90625 22.046875 40.75 
Q 18.703125 37.59375 18.703125 33 
L 18.703125 17.09375 
Q 18.703125 12.5 22.046875 9.390625 
Q 25.40625 6.296875 30.5 6.296875 
Q 35.59375 6.296875 38.84375 9.390625 
Q 42.09375 12.5 42.09375 17.09375 
z
M 18.703125 3.703125 
L 18.796875 -16.203125 
Q 18.796875 -18 16.5 -18 
L 13 -18 
Q 10.703125 -18 10.703125 -16.203125 
L 10.703125 48.203125 
Q 10.703125 50 13 50 
L 15.90625 50 
Q 18.203125 50 18.203125 48.203125 
L 18.203125 45.90625 
Q 18.59375 46.5 19.5 47.34375 
Q 20.40625 48.203125 23.75 49.59375 
Q 27.09375 51 31.296875 51 
Q 39.296875 51 44.796875 45.640625 
Q 50.296875 40.296875 50.296875 32.59375 
L 50.296875 17.40625 
Q 50.296875 9.796875 44.75 4.390625 
Q 39.203125 -1 31.296875 -1 
Q 27.40625 -1 24.25 0.203125 
Q 21.09375 1.40625 19.90625 2.59375 
z
" id="DecimaMonoPro-70"/>
     <path d="M 17.90625 32.90625 
L 17.90625 16.90625 
Q 17.90625 12.296875 21.15625 9.1875 
Q 24.40625 6.09375 29.5 6.09375 
Q 34.59375 6.09375 37.9375 9.25 
Q 41.296875 12.40625 41.296875 17 
L 41.296875 32.90625 
Q 41.296875 37.5 37.9375 40.59375 
Q 34.59375 43.703125 29.5 43.703125 
Q 24.40625 43.703125 21.15625 40.59375 
Q 17.90625 37.5 17.90625 32.90625 
z
M 41.296875 46.296875 
L 41.203125 68.203125 
Q 41.203125 70 43.5 70 
L 47 70 
Q 49.296875 70 49.296875 68.203125 
L 49.296875 1.796875 
Q 49.296875 0 47 0 
L 44.09375 0 
Q 41.796875 0 41.796875 1.796875 
L 41.796875 4.09375 
Q 41.40625 3.5 40.5 2.640625 
Q 39.59375 1.796875 36.25 0.390625 
Q 32.90625 -1 28.703125 -1 
Q 20.703125 -1 15.203125 4.34375 
Q 9.703125 9.703125 9.703125 17.40625 
L 9.703125 32.59375 
Q 9.703125 40.203125 15.25 45.59375 
Q 20.796875 51 28.703125 51 
Q 32.59375 51 35.75 49.796875 
Q 38.90625 48.59375 40.09375 47.40625 
z
" id="DecimaMonoPro-64"/>
    </defs>
    <g transform="translate(669.860893 617.505991)scale(0.18 -0.18)">
     <use xlink:href="#DecimaMonoPro-70"/>
     <use x="59.999985" xlink:href="#DecimaMonoPro-64"/>
     <use x="119.999969" xlink:href="#DecimaMonoPro-66"/>
    </g>
   </g>
   <g id="text_6">
    <!-- xml -->
    <defs>
     <path d="M 45.40625 1.796875 
L 45.40625 38.40625 
Q 45.40625 40.5 43.84375 42.140625 
Q 42.296875 43.796875 40.5 43.796875 
Q 37.40625 43.796875 35.75 41.4375 
Q 34.09375 39.09375 34.09375 35.5 
L 34.09375 1.796875 
Q 34.09375 0 31.796875 0 
L 28.59375 0 
Q 26.296875 0 26.296875 1.796875 
L 26.296875 38.40625 
Q 26.296875 40.59375 24.84375 42.1875 
Q 23.40625 43.796875 21.09375 43.796875 
Q 18.09375 43.796875 16.34375 41.390625 
Q 14.59375 39 14.59375 35.5 
L 14.59375 1.796875 
Q 14.59375 0 12.296875 0 
L 8.90625 0 
Q 6.59375 0 6.59375 1.796875 
L 6.59375 48.203125 
Q 6.59375 50 8.90625 50 
L 12.203125 50 
Q 14.40625 50 14.40625 48.203125 
L 14.40625 46.296875 
Q 17.5 50.796875 22.796875 50.796875 
Q 25.40625 50.796875 27.25 49.84375 
Q 29.09375 48.90625 29.796875 47.953125 
Q 30.5 47 31.40625 45.203125 
Q 35.40625 50.796875 41.59375 50.796875 
Q 47.203125 50.796875 50.296875 47.046875 
Q 53.40625 43.296875 53.40625 37.5 
L 53.40625 1.796875 
Q 53.40625 0 51.09375 0 
L 47.703125 0 
Q 45.40625 0 45.40625 1.796875 
z
" id="DecimaMonoPro-6d"/>
     <path d="M 15.90625 70.09375 
L 32.90625 70.09375 
Q 33.59375 70.09375 34.140625 69.546875 
Q 34.703125 69 34.703125 68.296875 
L 34.703125 7.203125 
L 48.90625 7.203125 
Q 49.59375 7.203125 50.140625 6.703125 
Q 50.703125 6.203125 50.703125 5.40625 
L 50.703125 1.796875 
Q 50.703125 1 50.140625 0.5 
Q 49.59375 0 48.90625 0 
L 13.09375 0 
Q 12.40625 0 11.84375 0.5 
Q 11.296875 1 11.296875 1.796875 
L 11.296875 5.40625 
Q 11.296875 6.203125 11.84375 6.703125 
Q 12.40625 7.203125 13.09375 7.203125 
L 26.703125 7.203125 
L 26.703125 62.90625 
L 15.90625 62.90625 
Q 15.203125 62.90625 14.640625 63.453125 
Q 14.09375 64 14.09375 64.703125 
L 14.09375 68.296875 
Q 14.09375 69 14.640625 69.546875 
Q 15.203125 70.09375 15.90625 70.09375 
z
" id="DecimaMonoPro-6c"/>
    </defs>
    <g transform="translate(706.461468 562.611483)scale(0.18 -0.18)">
     <use xlink:href="#DecimaMonoPro-78"/>
     <use x="59.999985" xlink:href="#DecimaMonoPro-6d"/>
     <use x="119.999969" xlink:href="#DecimaMonoPro-6c"/>
    </g>
   </g>
   <g id="text_7">
    <!-- xls -->
    <g transform="translate(722.984987 523.279952)scale(0.18 -0.18)">
     <use xlink:href="#DecimaMonoPro-78"/>
     <use x="59.999985" xlink:href="#DecimaMonoPro-6c"/>
     <use x="119.999969" xlink:href="#DecimaMonoPro-73"/>
    </g>
   </g>
   <g id="text_8">
    <!-- dat -->
    <defs>
     <path d="M 40.5 24.40625 
L 27.40625 23.5 
Q 23.5 23.203125 20.890625 20.75 
Q 18.296875 18.296875 18.296875 14.703125 
Q 18.296875 11.203125 21.140625 8.703125 
Q 24 6.203125 28.09375 6.203125 
Q 33.40625 6.203125 36.953125 9.25 
Q 40.5 12.296875 40.5 15.703125 
z
M 48.59375 34.796875 
L 48.59375 1.796875 
Q 48.59375 0 46.296875 0 
L 43.09375 0 
Q 40.796875 0 40.796875 1.796875 
L 40.796875 4.40625 
Q 40.296875 3.796875 39.34375 2.890625 
Q 38.40625 2 35.046875 0.5 
Q 31.703125 -1 27.703125 -1 
Q 20.5 -1 15.390625 3.453125 
Q 10.296875 7.90625 10.296875 14.59375 
Q 10.296875 21.09375 15.09375 25.640625 
Q 19.90625 30.203125 26.796875 30.703125 
L 40.5 31.59375 
L 40.5 34.203125 
Q 40.5 38.09375 37.796875 40.890625 
Q 35.09375 43.703125 30.703125 43.703125 
Q 26.90625 43.703125 24.40625 42.09375 
Q 21.90625 40.5 21 38.09375 
Q 20.203125 36.40625 19.203125 36.40625 
L 15 36.40625 
Q 14.203125 36.40625 13.703125 36.90625 
Q 13.203125 37.40625 13.203125 38.203125 
Q 13.203125 42.09375 18.203125 46.546875 
Q 23.203125 51 30.703125 51 
Q 39.296875 51 43.9375 46.390625 
Q 48.59375 41.796875 48.59375 34.796875 
z
" id="DecimaMonoPro-61"/>
    </defs>
    <g transform="translate(731.871495 489.988823)scale(0.18 -0.18)">
     <use xlink:href="#DecimaMonoPro-64"/>
     <use x="59.999985" xlink:href="#DecimaMonoPro-61"/>
     <use x="119.999969" xlink:href="#DecimaMonoPro-74"/>
    </g>
   </g>
   <g id="text_9">
    <!-- readme -->
    <defs>
     <path d="M 37.203125 51 
Q 44.09375 51 48.140625 46.453125 
Q 52.203125 41.90625 52.203125 37.5 
Q 52.203125 35.703125 50.5 35.703125 
L 45.90625 35.703125 
Q 44.296875 35.703125 44.09375 37.40625 
Q 43.796875 39.796875 41.75 41.796875 
Q 39.703125 43.796875 36.59375 43.796875 
Q 32.40625 43.796875 29.203125 40.796875 
Q 26 37.796875 26 34 
L 26 7.203125 
L 45.09375 7.203125 
Q 45.796875 7.203125 46.34375 6.703125 
Q 46.90625 6.203125 46.90625 5.40625 
L 46.90625 1.796875 
Q 46.90625 1 46.34375 0.5 
Q 45.796875 0 45.09375 0 
L 9.296875 0 
Q 8.59375 0 8.046875 0.5 
Q 7.5 1 7.5 1.796875 
L 7.5 5.40625 
Q 7.5 6.203125 8.046875 6.703125 
Q 8.59375 7.203125 9.296875 7.203125 
L 18 7.203125 
L 18 48.203125 
Q 18 50 20.296875 50 
L 23.5 50 
Q 25.796875 50 25.796875 48.203125 
L 25.796875 45.703125 
Q 29.796875 51 37.203125 51 
z
" id="DecimaMonoPro-72"/>
     <path d="M 48.796875 13.5 
Q 48.796875 9.09375 43.75 4.046875 
Q 38.703125 -1 30.203125 -1 
Q 21.203125 -1 15.75 4.453125 
Q 10.296875 9.90625 10.296875 17.5 
L 10.296875 32.703125 
Q 10.296875 40.203125 15.75 45.59375 
Q 21.203125 51 30.203125 51 
Q 39.203125 51 44.453125 45.59375 
Q 49.703125 40.203125 49.703125 32.703125 
L 49.703125 24.796875 
Q 49.703125 23.796875 49.046875 23.140625 
Q 48.40625 22.5 47.40625 22.5 
L 18.40625 22.5 
L 18.40625 17 
Q 18.40625 12.5 21.65625 9.296875 
Q 24.90625 6.09375 30.203125 6.09375 
Q 38.5 6.09375 40.59375 13.59375 
Q 41.09375 15.296875 42.40625 15.296875 
L 47 15.296875 
Q 47.796875 15.296875 48.296875 14.75 
Q 48.796875 14.203125 48.796875 13.5 
z
M 18.40625 33 
L 18.40625 29.703125 
L 41.796875 29.703125 
L 41.796875 33 
Q 41.796875 37.5 38.640625 40.640625 
Q 35.5 43.796875 30.203125 43.796875 
Q 24.90625 43.796875 21.65625 40.640625 
Q 18.40625 37.5 18.40625 33 
z
" id="DecimaMonoPro-65"/>
    </defs>
    <g transform="translate(735.993659 462.77635)scale(0.18 -0.18)">
     <use xlink:href="#DecimaMonoPro-72"/>
     <use x="59.999985" xlink:href="#DecimaMonoPro-65"/>
     <use x="119.999969" xlink:href="#DecimaMonoPro-61"/>
     <use x="179.999954" xlink:href="#DecimaMonoPro-64"/>
     <use x="239.999939" xlink:href="#DecimaMonoPro-6d"/>
     <use x="299.999924" xlink:href="#DecimaMonoPro-65"/>
    </g>
   </g>
   <g id="text_10">
    <!-- jpg -->
    <defs>
     <path d="M 43.796875 66.296875 
L 43.796875 62 
Q 43.796875 61 43.140625 60.34375 
Q 42.5 59.703125 41.5 59.703125 
L 36.90625 59.703125 
Q 35.90625 59.703125 35.25 60.34375 
Q 34.59375 61 34.59375 62 
L 34.59375 66.296875 
Q 34.59375 67.296875 35.25 67.9375 
Q 35.90625 68.59375 36.90625 68.59375 
L 41.5 68.59375 
Q 42.5 68.59375 43.140625 67.9375 
Q 43.796875 67.296875 43.796875 66.296875 
z
M 21.703125 -4.296875 
Q 21.703125 -7.5 23.75 -9.640625 
Q 25.796875 -11.796875 28.703125 -11.796875 
Q 31.5 -11.796875 33.546875 -9.6875 
Q 35.59375 -7.59375 35.59375 -4.796875 
L 35.59375 42.796875 
L 13.703125 42.796875 
Q 13 42.796875 12.453125 43.296875 
Q 11.90625 43.796875 11.90625 44.59375 
L 11.90625 48.203125 
Q 11.90625 49 12.453125 49.5 
Q 13 50 13.703125 50 
L 42 50 
Q 42.796875 50 43.296875 49.5 
Q 43.796875 49 43.796875 48.203125 
L 43.796875 -4.296875 
Q 43.796875 -10.40625 39.296875 -14.703125 
Q 34.796875 -19 28.5 -19 
Q 22.40625 -19 18.046875 -14.703125 
Q 13.703125 -10.40625 13.703125 -4.296875 
Q 13.703125 -2.5 16 -2.5 
L 19.40625 -2.5 
Q 21.703125 -2.5 21.703125 -4.296875 
z
" id="DecimaMonoPro-6a"/>
    </defs>
    <g transform="translate(737.301043 442.639796)scale(0.18 -0.18)">
     <use xlink:href="#DecimaMonoPro-6a"/>
     <use x="59.999985" xlink:href="#DecimaMonoPro-70"/>
     <use x="119.999969" xlink:href="#DecimaMonoPro-67"/>
    </g>
   </g>
  </g>
 </g>
 <defs>
  <clipPath id="p22a63958c1">
   <rect height="652.32" width="669.6" x="108" y="103.68"/>
  </clipPath>
 </defs>
</svg>
